<svg xmlns="http://www.w3.org/2000/svg" viewBox="0 0 256 256">
  <rect width="256" height="256" fill="#0A1F44"/>
  <path d="M60 80 L60 176 L100 176 Q120 176 130 166 Q140 156 140 140 Q140 124 130 114 Q120 104 100 104 L80 104 L80 80 Z M80 124 L100 124 Q110 124 115 129 Q120 134 120 140 Q120 146 115 151 Q110 156 100 156 L80 156 Z" fill="#00D4FF"/>
  <path d="M160 80 L160 176 L180 176 L180 140 L200 140 Q220 140 230 130 Q240 120 240 104 Q240 88 230 78 Q220 68 200 68 L160 68 Z M180 100 L180 88 L200 88 Q210 88 215 93 Q220 98 220 104 Q220 110 215 115 Q210 120 200 120 L180 120 Z" fill="#00D4FF"/>
  <path d="M200 60 L220 40 L210 40 L190 60 L200 70 Z" fill="#00D4FF"/>
  <path d="M220 40 L240 20 L230 20 L210 40 Z" fill="#00D4FF"/>
  <circle cx="205" cy="65" r="3" fill="#00D4FF"/>
</svg>